<?xml version="1.0" standalone="no"?>
<!DOCTYPE svg PUBLIC "-//W3C//DTD SVG 20010904//EN"
 "http://www.w3.org/TR/2001/REC-SVG-20010904/DTD/svg10.dtd">
<svg version="1.0" xmlns="http://www.w3.org/2000/svg"
 width="372.000000pt" height="372.000000pt" viewBox="0 0 372.000000 372.000000"
 preserveAspectRatio="xMidYMid meet">

<g transform="translate(0.000000,372.000000) scale(0.100000,-0.100000)"
fill="#000000" stroke="none">
<path d="M1626 3700 c-175 -22 -383 -82 -546 -156 -101 -47 -313 -175 -378
-229 l-54 -45 1212 0 1212 0 -44 36 c-47 40 -187 135 -258 176 -127 73 -376
162 -556 199 -112 23 -466 34 -588 19z"/>
<path d="M504 3130 c-122 -130 -195 -235 -287 -410 -68 -130 -119 -265 -156
-418 -38 -153 -41 -172 -50 -319 -16 -236 15 -480 90 -706 63 -192 180 -420
216 -423 10 0 42 -1 71 -2 48 -2 52 -4 52 -27 0 -23 -3 -25 -51 -25 l-50 0 33
-47 c152 -214 417 -433 673 -558 213 -104 405 -156 664 -180 143 -13 178 -13
313 1 84 8 194 24 243 35 371 82 722 288 973 569 109 122 137 165 133 201 -2
25 1 29 22 29 21 0 34 14 75 87 114 199 170 347 208 547 93 491 9 957 -242
1355 -30 47 -60 95 -67 106 -24 39 -116 151 -161 194 l-45 45 -1303 0 -1303 1
-51 -55z m2206 -519 c14 -27 13 -37 -6 -55 -14 -14 -102 -16 -825 -16 l-809 0
-11 24 c-8 17 -8 29 0 45 l12 21 814 0 c795 0 815 0 825 -19z m161 -346 c-1
-137 -5 -253 -7 -257 -3 -5 -12 -8 -20 -8 -12 0 -14 38 -14 244 0 134 3 252 6
261 4 9 14 15 22 13 14 -3 16 -33 13 -253z m-1923 -8 l2 -248 -27 3 c-23 2
-28 8 -27 31 0 15 1 126 2 248 l2 220 23 -3 22 -3 3 -248z m1122 -286 c14 -27
13 -37 -6 -55 -13 -13 -44 -16 -178 -16 -150 0 -164 2 -181 20 -15 17 -16 24
-7 45 l12 25 174 0 c163 0 176 -1 186 -19z m-1200 -100 c5 -11 36 -89 68 -173
33 -84 68 -171 80 -194 21 -42 17 -69 -10 -59 -18 7 -26 25 -113 249 -36 93
-63 176 -61 183 8 19 24 16 36 -6z m1440 -8 c0 -9 -31 -97 -69 -197 -38 -99
-71 -193 -75 -208 -4 -19 -13 -28 -25 -28 -16 0 -19 6 -15 34 6 54 139 406
158 418 14 9 26 0 26 -19z m-745 -130 c31 -82 70 -177 86 -212 16 -35 29 -70
29 -78 0 -25 -33 -10 -52 23 -27 46 -158 396 -152 406 17 27 37 -5 89 -139z
m1385 132 c0 -12 -110 -321 -151 -423 -14 -34 -34 -21 -32 20 2 29 116 345
145 401 11 21 38 23 38 2z m-875 -525 c20 -16 19 -39 -2 -62 -14 -16 -34 -18
-175 -18 -158 0 -158 0 -170 24 -13 30 -5 54 21 64 35 12 309 6 326 -8z
m-1125 -361 l0 -260 -22 3 -23 3 -3 245 c-1 134 0 250 3 257 2 7 14 13 25 13
20 0 20 -5 20 -261z m642 14 c2 -137 1 -254 -1 -260 -5 -18 -38 -16 -45 3 -8
21 -8 489 1 497 3 4 14 7 24 7 16 0 18 -19 21 -247z m638 -13 c0 -243 -1 -250
-20 -250 -19 0 -20 7 -20 250 0 243 1 250 20 250 19 0 20 -7 20 -250z m640 -1
c0 -233 -1 -250 -17 -247 -17 3 -18 24 -21 251 -2 242 -2 247 18 247 20 0 20
-6 20 -251z m-2137 -138 c4 -4 5 -15 1 -25 -6 -15 -22 -16 -133 -14 -121 3
-126 4 -129 25 -2 14 3 22 14 25 30 6 239 -3 247 -11z m650 0 c7 -7 6 -16 -3
-26 -11 -13 -34 -15 -139 -13 -114 3 -126 5 -129 22 -2 10 1 21 6 25 16 10
255 2 265 -8z m1175 9 c101 0 103 0 100 -22 -3 -22 -7 -23 -129 -26 -110 -2
-127 0 -133 14 -9 23 13 47 38 40 12 -3 67 -6 124 -6z m640 0 c101 0 103 0
100 -22 -3 -22 -7 -23 -131 -26 -107 -2 -128 0 -133 13 -9 22 16 47 40 41 12
-3 67 -6 124 -6z"/>
</g>
</svg>
