<?xml version="1.0" encoding="UTF-8"?>
<svg xmlns="http://www.w3.org/2000/svg" xmlns:xlink="http://www.w3.org/1999/xlink" width="48px" height="48px" viewBox="0 0 48 48" version="1.1">
<g id="surface1">
<path style=" stroke:none;fill-rule:nonzero;fill:rgb(0%,0%,0%);fill-opacity:1;" d="M 20.980469 0.257812 C 18.722656 0.542969 16.039062 1.316406 13.933594 2.269531 C 12.632812 2.878906 9.898438 4.527344 9.058594 5.226562 L 8.359375 5.804688 L 39.640625 5.804688 L 39.070312 5.34375 C 38.464844 4.824219 36.65625 3.601562 35.742188 3.070312 C 34.101562 2.128906 30.890625 0.980469 28.566406 0.503906 C 27.121094 0.207031 22.554688 0.0664062 20.980469 0.257812 Z M 20.980469 0.257812 "/>
<path style=" stroke:none;fill-rule:nonzero;fill:rgb(0%,0%,0%);fill-opacity:1;" d="M 6.503906 7.613281 C 4.929688 9.289062 3.988281 10.644531 2.800781 12.902344 C 1.921875 14.582031 1.265625 16.324219 0.785156 18.296875 C 0.296875 20.269531 0.257812 20.515625 0.140625 22.414062 C -0.0664062 25.457031 0.335938 28.605469 1.304688 31.523438 C 2.117188 34 3.625 36.941406 4.089844 36.980469 C 4.21875 36.980469 4.632812 36.992188 5.007812 37.007812 C 5.625 37.03125 5.675781 37.058594 5.675781 37.355469 C 5.675781 37.652344 5.640625 37.675781 5.019531 37.675781 L 4.375 37.675781 L 4.800781 38.285156 C 6.761719 41.046875 10.179688 43.871094 13.484375 45.484375 C 16.230469 46.824219 18.710938 47.496094 22.050781 47.804688 C 23.898438 47.972656 24.347656 47.972656 26.089844 47.792969 C 27.175781 47.691406 28.59375 47.484375 29.226562 47.34375 C 34.011719 46.285156 38.542969 43.625 41.78125 40 C 43.1875 38.425781 43.546875 37.871094 43.496094 37.40625 C 43.472656 37.082031 43.507812 37.03125 43.78125 37.03125 C 44.050781 37.03125 44.21875 36.851562 44.75 35.910156 C 46.21875 33.34375 46.941406 31.433594 47.433594 28.851562 C 48.632812 22.515625 47.546875 16.503906 44.308594 11.367188 C 43.921875 10.761719 43.535156 10.140625 43.445312 10 C 43.136719 9.496094 41.949219 8.050781 41.367188 7.496094 L 40.785156 6.917969 L 23.972656 6.917969 L 7.160156 6.902344 Z M 34.96875 14.308594 C 35.148438 14.65625 35.136719 14.785156 34.890625 15.019531 C 34.710938 15.199219 33.574219 15.226562 24.246094 15.226562 L 13.804688 15.226562 L 13.664062 14.917969 C 13.5625 14.695312 13.5625 14.542969 13.664062 14.335938 L 13.820312 14.066406 L 24.324219 14.066406 C 34.582031 14.066406 34.839844 14.066406 34.96875 14.308594 Z M 37.046875 18.773438 C 37.03125 20.542969 36.980469 22.039062 36.953125 22.089844 C 36.917969 22.15625 36.800781 22.195312 36.695312 22.195312 C 36.542969 22.195312 36.515625 21.703125 36.515625 19.046875 C 36.515625 17.316406 36.554688 15.792969 36.59375 15.675781 C 36.644531 15.5625 36.773438 15.484375 36.878906 15.507812 C 37.058594 15.546875 37.082031 15.933594 37.046875 18.773438 Z M 12.230469 18.878906 L 12.257812 22.078125 L 11.910156 22.039062 C 11.613281 22.011719 11.546875 21.933594 11.5625 21.640625 C 11.5625 21.445312 11.574219 20.011719 11.585938 18.4375 L 11.613281 15.601562 L 11.910156 15.640625 L 12.195312 15.675781 Z M 26.710938 22.566406 C 26.890625 22.917969 26.878906 23.046875 26.632812 23.277344 C 26.464844 23.445312 26.066406 23.484375 24.335938 23.484375 C 22.398438 23.484375 22.21875 23.457031 22 23.226562 C 21.804688 23.007812 21.792969 22.917969 21.910156 22.644531 L 22.066406 22.324219 L 24.308594 22.324219 C 26.414062 22.324219 26.582031 22.335938 26.710938 22.566406 Z M 11.226562 23.859375 C 11.289062 24 11.691406 25.007812 12.101562 26.089844 C 12.527344 27.175781 12.980469 28.296875 13.136719 28.59375 C 13.40625 29.136719 13.355469 29.484375 13.007812 29.355469 C 12.773438 29.265625 12.671875 29.03125 11.546875 26.140625 C 11.082031 24.941406 10.734375 23.871094 10.761719 23.78125 C 10.863281 23.535156 11.070312 23.574219 11.226562 23.859375 Z M 29.804688 23.960938 C 29.804688 24.078125 29.40625 25.214844 28.917969 26.503906 C 28.425781 27.78125 28 28.992188 27.949219 29.1875 C 27.898438 29.433594 27.78125 29.546875 27.625 29.546875 C 27.417969 29.546875 27.378906 29.472656 27.433594 29.109375 C 27.507812 28.414062 29.226562 23.871094 29.472656 23.714844 C 29.652344 23.601562 29.804688 23.714844 29.804688 23.960938 Z M 20.195312 25.640625 C 20.59375 26.695312 21.097656 27.921875 21.304688 28.375 C 21.507812 28.824219 21.675781 29.277344 21.675781 29.378906 C 21.675781 29.703125 21.25 29.507812 21.007812 29.082031 C 20.65625 28.492188 18.96875 23.972656 19.046875 23.84375 C 19.265625 23.496094 19.523438 23.910156 20.195312 25.640625 Z M 38.066406 23.933594 C 38.066406 24.089844 36.644531 28.078125 36.117188 29.394531 C 35.933594 29.832031 35.675781 29.664062 35.703125 29.136719 C 35.730469 28.761719 37.199219 24.683594 37.574219 23.960938 C 37.714844 23.691406 38.066406 23.664062 38.066406 23.933594 Z M 26.773438 30.710938 C 27.03125 30.917969 27.019531 31.214844 26.75 31.507812 C 26.566406 31.714844 26.308594 31.742188 24.492188 31.742188 C 22.453125 31.742188 22.453125 31.742188 22.296875 31.433594 C 22.128906 31.046875 22.230469 30.734375 22.566406 30.605469 C 23.019531 30.453125 26.554688 30.527344 26.773438 30.710938 Z M 12.257812 35.367188 L 12.257812 38.722656 L 11.972656 38.683594 L 11.675781 38.644531 L 11.640625 35.484375 C 11.625 33.753906 11.640625 32.257812 11.675781 32.167969 C 11.703125 32.078125 11.859375 32 12 32 C 12.257812 32 12.257812 32.066406 12.257812 35.367188 Z M 20.542969 35.1875 C 20.566406 36.953125 20.554688 38.464844 20.527344 38.542969 C 20.464844 38.773438 20.039062 38.75 19.949219 38.503906 C 19.84375 38.230469 19.84375 32.195312 19.960938 32.089844 C 20 32.039062 20.140625 32 20.269531 32 C 20.476562 32 20.503906 32.246094 20.542969 35.1875 Z M 28.773438 35.355469 C 28.773438 38.492188 28.761719 38.582031 28.515625 38.582031 C 28.269531 38.582031 28.257812 38.492188 28.257812 35.355469 C 28.257812 32.21875 28.269531 32.128906 28.515625 32.128906 C 28.761719 32.128906 28.773438 32.21875 28.773438 35.355469 Z M 37.03125 35.367188 C 37.03125 38.375 37.019531 38.59375 36.8125 38.554688 C 36.59375 38.515625 36.582031 38.246094 36.542969 35.316406 C 36.515625 32.195312 36.515625 32.128906 36.773438 32.128906 C 37.03125 32.128906 37.03125 32.207031 37.03125 35.367188 Z M 9.457031 37.148438 C 9.507812 37.199219 9.523438 37.34375 9.472656 37.472656 C 9.394531 37.664062 9.1875 37.675781 7.753906 37.652344 C 6.195312 37.613281 6.128906 37.601562 6.089844 37.328125 C 6.066406 37.148438 6.128906 37.046875 6.269531 37.007812 C 6.65625 36.929688 9.355469 37.046875 9.457031 37.148438 Z M 17.84375 37.148438 C 17.933594 37.238281 17.921875 37.355469 17.804688 37.484375 C 17.664062 37.652344 17.367188 37.675781 16.011719 37.652344 C 14.542969 37.613281 14.386719 37.585938 14.347656 37.367188 C 14.324219 37.238281 14.359375 37.097656 14.425781 37.046875 C 14.632812 36.917969 17.714844 37.019531 17.84375 37.148438 Z M 33.007812 37.03125 C 34.308594 37.03125 34.335938 37.03125 34.296875 37.316406 C 34.257812 37.601562 34.207031 37.613281 32.632812 37.652344 C 31.214844 37.675781 30.992188 37.652344 30.917969 37.472656 C 30.800781 37.175781 31.082031 36.863281 31.40625 36.953125 C 31.5625 36.992188 32.269531 37.03125 33.007812 37.03125 Z M 41.265625 37.03125 C 42.566406 37.03125 42.59375 37.03125 42.554688 37.316406 C 42.515625 37.601562 42.464844 37.613281 40.863281 37.652344 C 39.484375 37.675781 39.214844 37.652344 39.148438 37.484375 C 39.03125 37.199219 39.355469 36.878906 39.664062 36.953125 C 39.820312 36.992188 40.527344 37.03125 41.265625 37.03125 Z M 41.265625 37.03125 "/>
</g>
</svg>
