<?xml version="1.0" encoding="UTF-8"?>
<svg xmlns="http://www.w3.org/2000/svg" xmlns:xlink="http://www.w3.org/1999/xlink" width="24px" height="24px" viewBox="0 0 24 24" version="1.1">
<g id="surface1">
<path style=" stroke:none;fill-rule:nonzero;fill:rgb(0%,0%,0%);fill-opacity:1;" d="M 10.492188 0.128906 C 9.359375 0.269531 8.019531 0.65625 6.96875 1.136719 C 6.316406 1.4375 4.949219 2.265625 4.527344 2.613281 L 4.179688 2.902344 L 19.820312 2.902344 L 19.535156 2.671875 C 19.230469 2.414062 18.328125 1.800781 17.871094 1.535156 C 17.050781 1.066406 15.445312 0.492188 14.285156 0.25 C 13.5625 0.101562 11.277344 0.03125 10.492188 0.128906 Z M 10.492188 0.128906 "/>
<path style=" stroke:none;fill-rule:nonzero;fill:rgb(0%,0%,0%);fill-opacity:1;" d="M 3.25 3.804688 C 2.464844 4.644531 1.992188 5.324219 1.398438 6.453125 C 0.960938 7.289062 0.632812 8.160156 0.394531 9.148438 C 0.148438 10.136719 0.128906 10.257812 0.0703125 11.207031 C -0.03125 12.730469 0.167969 14.304688 0.652344 15.761719 C 1.058594 17 1.8125 18.472656 2.046875 18.492188 C 2.109375 18.492188 2.316406 18.496094 2.503906 18.503906 C 2.8125 18.515625 2.839844 18.527344 2.839844 18.675781 C 2.839844 18.824219 2.820312 18.839844 2.507812 18.839844 L 2.1875 18.839844 L 2.398438 19.140625 C 3.378906 20.523438 5.089844 21.933594 6.742188 22.742188 C 8.117188 23.414062 9.355469 23.75 11.027344 23.902344 C 11.949219 23.988281 12.175781 23.988281 13.046875 23.898438 C 13.585938 23.84375 14.296875 23.742188 14.613281 23.671875 C 17.007812 23.140625 19.269531 21.8125 20.890625 20 C 21.59375 19.214844 21.773438 18.933594 21.75 18.703125 C 21.734375 18.542969 21.753906 18.515625 21.890625 18.515625 C 22.027344 18.515625 22.109375 18.425781 22.375 17.953125 C 23.109375 16.671875 23.472656 15.714844 23.714844 14.425781 C 24.316406 11.257812 23.773438 8.25 22.15625 5.683594 C 21.960938 5.378906 21.769531 5.070312 21.722656 5 C 21.566406 4.75 20.972656 4.027344 20.683594 3.75 L 20.394531 3.457031 L 11.988281 3.457031 L 3.582031 3.453125 Z M 17.484375 7.15625 C 17.574219 7.328125 17.566406 7.394531 17.445312 7.507812 C 17.355469 7.601562 16.785156 7.613281 12.121094 7.613281 L 6.902344 7.613281 L 6.832031 7.457031 C 6.78125 7.347656 6.78125 7.269531 6.832031 7.167969 L 6.910156 7.03125 L 12.160156 7.03125 C 17.289062 7.03125 17.417969 7.03125 17.484375 7.15625 Z M 18.523438 9.386719 C 18.515625 10.269531 18.492188 11.019531 18.476562 11.046875 C 18.457031 11.078125 18.398438 11.097656 18.347656 11.097656 C 18.269531 11.097656 18.257812 10.851562 18.257812 9.523438 C 18.257812 8.65625 18.277344 7.898438 18.296875 7.839844 C 18.324219 7.78125 18.386719 7.742188 18.4375 7.753906 C 18.527344 7.773438 18.542969 7.96875 18.523438 9.386719 Z M 6.117188 9.4375 L 6.128906 11.039062 L 5.953125 11.019531 C 5.804688 11.007812 5.773438 10.96875 5.78125 10.820312 C 5.78125 10.722656 5.785156 10.007812 5.792969 9.21875 L 5.804688 7.800781 L 5.953125 7.820312 L 6.097656 7.839844 Z M 13.355469 11.285156 C 13.445312 11.457031 13.4375 11.523438 13.316406 11.640625 C 13.230469 11.722656 13.03125 11.742188 12.167969 11.742188 C 11.199219 11.742188 11.109375 11.730469 11 11.613281 C 10.902344 11.503906 10.898438 11.457031 10.953125 11.324219 L 11.03125 11.160156 L 12.15625 11.160156 C 13.207031 11.160156 13.289062 11.167969 13.355469 11.285156 Z M 5.613281 11.929688 C 5.644531 12 5.84375 12.503906 6.050781 13.046875 C 6.265625 13.585938 6.492188 14.148438 6.566406 14.296875 C 6.703125 14.566406 6.675781 14.742188 6.503906 14.675781 C 6.386719 14.632812 6.335938 14.515625 5.773438 13.070312 C 5.542969 12.472656 5.367188 11.933594 5.378906 11.890625 C 5.433594 11.769531 5.535156 11.785156 5.613281 11.929688 Z M 14.902344 11.980469 C 14.902344 12.039062 14.703125 12.605469 14.457031 13.25 C 14.214844 13.890625 14 14.496094 13.972656 14.59375 C 13.949219 14.714844 13.890625 14.773438 13.8125 14.773438 C 13.710938 14.773438 13.691406 14.734375 13.714844 14.554688 C 13.753906 14.207031 14.613281 11.933594 14.734375 11.859375 C 14.824219 11.800781 14.902344 11.859375 14.902344 11.980469 Z M 10.097656 12.820312 C 10.296875 13.347656 10.546875 13.960938 10.652344 14.1875 C 10.753906 14.414062 10.839844 14.640625 10.839844 14.691406 C 10.839844 14.851562 10.625 14.753906 10.503906 14.542969 C 10.328125 14.246094 9.484375 11.988281 9.523438 11.921875 C 9.632812 11.75 9.761719 11.953125 10.097656 12.820312 Z M 19.03125 11.96875 C 19.03125 12.046875 18.324219 14.039062 18.058594 14.695312 C 17.96875 14.917969 17.839844 14.832031 17.851562 14.566406 C 17.863281 14.378906 18.601562 12.34375 18.785156 11.980469 C 18.859375 11.84375 19.03125 11.832031 19.03125 11.96875 Z M 13.386719 15.355469 C 13.515625 15.457031 13.507812 15.605469 13.375 15.753906 C 13.285156 15.859375 13.15625 15.871094 12.246094 15.871094 C 11.226562 15.871094 11.226562 15.871094 11.148438 15.714844 C 11.066406 15.523438 11.117188 15.367188 11.285156 15.304688 C 11.507812 15.226562 13.277344 15.265625 13.386719 15.355469 Z M 6.128906 17.683594 L 6.128906 19.359375 L 5.988281 19.34375 L 5.839844 19.324219 L 5.820312 17.742188 C 5.8125 16.878906 5.820312 16.128906 5.839844 16.082031 C 5.851562 16.039062 5.929688 16 6 16 C 6.128906 16 6.128906 16.03125 6.128906 17.683594 Z M 10.269531 17.59375 C 10.285156 18.476562 10.277344 19.230469 10.265625 19.269531 C 10.230469 19.386719 10.019531 19.375 9.972656 19.25 C 9.921875 19.117188 9.921875 16.097656 9.980469 16.046875 C 10 16.019531 10.070312 16 10.136719 16 C 10.238281 16 10.25 16.121094 10.269531 17.59375 Z M 14.386719 17.675781 C 14.386719 19.246094 14.378906 19.289062 14.257812 19.289062 C 14.136719 19.289062 14.128906 19.246094 14.128906 17.675781 C 14.128906 16.109375 14.136719 16.066406 14.257812 16.066406 C 14.378906 16.066406 14.386719 16.109375 14.386719 17.675781 Z M 18.515625 17.683594 C 18.515625 19.1875 18.507812 19.296875 18.40625 19.277344 C 18.296875 19.257812 18.289062 19.121094 18.269531 17.65625 C 18.257812 16.097656 18.257812 16.066406 18.386719 16.066406 C 18.515625 16.066406 18.515625 16.101562 18.515625 17.683594 Z M 4.730469 18.574219 C 4.753906 18.601562 4.761719 18.671875 4.734375 18.734375 C 4.695312 18.832031 4.59375 18.839844 3.878906 18.824219 C 3.097656 18.804688 3.066406 18.800781 3.046875 18.664062 C 3.03125 18.574219 3.066406 18.523438 3.136719 18.503906 C 3.328125 18.464844 4.675781 18.523438 4.730469 18.574219 Z M 8.921875 18.574219 C 8.96875 18.621094 8.960938 18.675781 8.902344 18.742188 C 8.832031 18.824219 8.683594 18.839844 8.007812 18.824219 C 7.269531 18.804688 7.195312 18.792969 7.175781 18.683594 C 7.160156 18.621094 7.179688 18.546875 7.214844 18.523438 C 7.316406 18.457031 8.859375 18.507812 8.921875 18.574219 Z M 16.503906 18.515625 C 17.15625 18.515625 17.167969 18.515625 17.148438 18.65625 C 17.128906 18.800781 17.101562 18.804688 16.316406 18.824219 C 15.605469 18.839844 15.496094 18.824219 15.457031 18.734375 C 15.398438 18.585938 15.542969 18.433594 15.703125 18.476562 C 15.78125 18.496094 16.136719 18.515625 16.503906 18.515625 Z M 20.632812 18.515625 C 21.285156 18.515625 21.296875 18.515625 21.277344 18.65625 C 21.257812 18.800781 21.230469 18.804688 20.433594 18.824219 C 19.742188 18.839844 19.605469 18.824219 19.574219 18.742188 C 19.515625 18.601562 19.675781 18.4375 19.832031 18.476562 C 19.910156 18.496094 20.265625 18.515625 20.632812 18.515625 Z M 20.632812 18.515625 "/>
</g>
</svg>
