<?xml version="1.0" encoding="UTF-8"?>
<svg xmlns="http://www.w3.org/2000/svg" xmlns:xlink="http://www.w3.org/1999/xlink" width="32px" height="32px" viewBox="0 0 32 32" version="1.1">
<g id="surface1">
<path style=" stroke:none;fill-rule:nonzero;fill:rgb(0%,0%,0%);fill-opacity:1;" d="M 13.988281 0.171875 C 12.480469 0.359375 10.691406 0.878906 9.289062 1.515625 C 8.421875 1.917969 6.597656 3.019531 6.039062 3.484375 L 5.574219 3.871094 L 26.425781 3.871094 L 26.046875 3.5625 C 25.644531 3.21875 24.4375 2.398438 23.828125 2.046875 C 22.734375 1.417969 20.59375 0.652344 19.046875 0.335938 C 18.082031 0.136719 15.035156 0.0429688 13.988281 0.171875 Z M 13.988281 0.171875 "/>
<path style=" stroke:none;fill-rule:nonzero;fill:rgb(0%,0%,0%);fill-opacity:1;" d="M 4.335938 5.074219 C 3.285156 6.195312 2.65625 7.097656 1.867188 8.601562 C 1.28125 9.71875 0.84375 10.882812 0.523438 12.199219 C 0.199219 13.515625 0.171875 13.675781 0.09375 14.941406 C -0.0429688 16.972656 0.222656 19.070312 0.867188 21.015625 C 1.410156 22.667969 2.417969 24.628906 2.726562 24.652344 C 2.8125 24.652344 3.089844 24.664062 3.335938 24.671875 C 3.75 24.6875 3.785156 24.707031 3.785156 24.902344 C 3.785156 25.101562 3.757812 25.117188 3.347656 25.117188 L 2.917969 25.117188 L 3.199219 25.523438 C 4.507812 27.363281 6.785156 29.246094 8.988281 30.324219 C 10.820312 31.21875 12.472656 31.664062 14.699219 31.871094 C 15.929688 31.984375 16.230469 31.984375 17.394531 31.863281 C 18.117188 31.792969 19.0625 31.65625 19.484375 31.5625 C 22.675781 30.855469 25.695312 29.082031 27.855469 26.667969 C 28.792969 25.617188 29.03125 25.246094 28.996094 24.9375 C 28.980469 24.722656 29.007812 24.6875 29.1875 24.6875 C 29.367188 24.6875 29.480469 24.566406 29.832031 23.941406 C 30.8125 22.226562 31.292969 20.953125 31.621094 19.234375 C 32.421875 15.011719 31.699219 11.003906 29.539062 7.578125 C 29.28125 7.175781 29.023438 6.761719 28.964844 6.667969 C 28.757812 6.332031 27.964844 5.367188 27.578125 4.996094 L 27.191406 4.609375 L 15.984375 4.609375 L 4.773438 4.601562 Z M 23.3125 9.539062 C 23.433594 9.773438 23.421875 9.859375 23.261719 10.011719 C 23.140625 10.132812 22.382812 10.152344 16.164062 10.152344 L 9.203125 10.152344 L 9.109375 9.945312 C 9.039062 9.796875 9.039062 9.695312 9.109375 9.558594 L 9.214844 9.375 L 16.214844 9.375 C 23.054688 9.375 23.226562 9.375 23.3125 9.539062 Z M 24.695312 12.515625 C 24.6875 13.695312 24.652344 14.691406 24.636719 14.726562 C 24.609375 14.769531 24.535156 14.796875 24.464844 14.796875 C 24.359375 14.796875 24.34375 14.46875 24.34375 12.695312 C 24.34375 11.542969 24.371094 10.527344 24.394531 10.453125 C 24.429688 10.375 24.515625 10.324219 24.585938 10.339844 C 24.707031 10.367188 24.722656 10.625 24.695312 12.515625 Z M 8.15625 12.585938 L 8.171875 14.71875 L 7.941406 14.691406 C 7.742188 14.675781 7.699219 14.625 7.707031 14.425781 C 7.707031 14.296875 7.714844 13.34375 7.726562 12.292969 L 7.742188 10.398438 L 7.941406 10.425781 L 8.128906 10.453125 Z M 17.804688 15.046875 C 17.925781 15.277344 17.917969 15.363281 17.753906 15.519531 C 17.644531 15.628906 17.375 15.65625 16.222656 15.65625 C 14.933594 15.65625 14.8125 15.640625 14.667969 15.484375 C 14.539062 15.335938 14.527344 15.277344 14.605469 15.097656 L 14.710938 14.882812 L 16.207031 14.882812 C 17.609375 14.882812 17.71875 14.890625 17.804688 15.046875 Z M 7.484375 15.90625 C 7.527344 16 7.792969 16.671875 8.070312 17.394531 C 8.351562 18.117188 8.652344 18.863281 8.757812 19.0625 C 8.9375 19.421875 8.902344 19.65625 8.671875 19.570312 C 8.515625 19.507812 8.449219 19.355469 7.699219 17.429688 C 7.390625 16.628906 7.15625 15.914062 7.175781 15.855469 C 7.242188 15.691406 7.378906 15.714844 7.484375 15.90625 Z M 19.871094 15.972656 C 19.871094 16.050781 19.605469 16.808594 19.277344 17.667969 C 18.949219 18.519531 18.667969 19.328125 18.632812 19.457031 C 18.597656 19.621094 18.519531 19.699219 18.417969 19.699219 C 18.28125 19.699219 18.253906 19.648438 18.289062 19.40625 C 18.339844 18.941406 19.484375 15.914062 19.648438 15.8125 C 19.769531 15.734375 19.871094 15.8125 19.871094 15.972656 Z M 13.460938 17.09375 C 13.730469 17.796875 14.066406 18.613281 14.203125 18.917969 C 14.339844 19.21875 14.453125 19.519531 14.453125 19.585938 C 14.453125 19.800781 14.167969 19.671875 14.003906 19.390625 C 13.773438 18.992188 12.644531 15.984375 12.695312 15.898438 C 12.84375 15.664062 13.015625 15.941406 13.460938 17.09375 Z M 25.375 15.957031 C 25.375 16.058594 24.429688 18.71875 24.078125 19.59375 C 23.957031 19.886719 23.785156 19.777344 23.800781 19.421875 C 23.820312 19.175781 24.800781 16.457031 25.050781 15.972656 C 25.144531 15.792969 25.375 15.777344 25.375 15.957031 Z M 17.847656 20.472656 C 18.023438 20.609375 18.011719 20.808594 17.832031 21.007812 C 17.710938 21.144531 17.539062 21.160156 16.328125 21.160156 C 14.96875 21.160156 14.96875 21.160156 14.863281 20.953125 C 14.753906 20.695312 14.820312 20.492188 15.046875 20.40625 C 15.347656 20.300781 17.703125 20.351562 17.847656 20.472656 Z M 8.171875 23.578125 L 8.171875 25.816406 L 7.984375 25.789062 L 7.785156 25.761719 L 7.757812 23.65625 C 7.75 22.503906 7.757812 21.503906 7.785156 21.445312 C 7.800781 21.386719 7.90625 21.332031 8 21.332031 C 8.171875 21.332031 8.171875 21.375 8.171875 23.578125 Z M 13.695312 23.457031 C 13.710938 24.636719 13.703125 25.644531 13.6875 25.695312 C 13.644531 25.847656 13.359375 25.832031 13.300781 25.667969 C 13.230469 25.488281 13.230469 21.460938 13.308594 21.394531 C 13.332031 21.359375 13.429688 21.332031 13.515625 21.332031 C 13.652344 21.332031 13.667969 21.496094 13.695312 23.457031 Z M 19.183594 23.570312 C 19.183594 25.660156 19.175781 25.71875 19.011719 25.71875 C 18.847656 25.71875 18.839844 25.660156 18.839844 23.570312 C 18.839844 21.480469 18.847656 21.417969 19.011719 21.417969 C 19.175781 21.417969 19.183594 21.480469 19.183594 23.570312 Z M 24.6875 23.578125 C 24.6875 25.582031 24.679688 25.730469 24.542969 25.703125 C 24.394531 25.675781 24.386719 25.496094 24.359375 23.542969 C 24.34375 21.460938 24.34375 21.417969 24.515625 21.417969 C 24.6875 21.417969 24.6875 21.472656 24.6875 23.578125 Z M 6.304688 24.765625 C 6.339844 24.800781 6.347656 24.894531 6.3125 24.980469 C 6.261719 25.109375 6.125 25.117188 5.167969 25.101562 C 4.128906 25.074219 4.085938 25.066406 4.058594 24.886719 C 4.042969 24.765625 4.085938 24.695312 4.179688 24.671875 C 4.4375 24.621094 6.238281 24.695312 6.304688 24.765625 Z M 11.898438 24.765625 C 11.957031 24.824219 11.949219 24.902344 11.871094 24.988281 C 11.777344 25.101562 11.578125 25.117188 10.675781 25.101562 C 9.695312 25.074219 9.589844 25.058594 9.566406 24.910156 C 9.546875 24.824219 9.574219 24.730469 9.617188 24.695312 C 9.753906 24.609375 11.8125 24.679688 11.898438 24.765625 Z M 22.003906 24.6875 C 22.875 24.6875 22.890625 24.6875 22.863281 24.878906 C 22.839844 25.066406 22.804688 25.074219 21.753906 25.101562 C 20.808594 25.117188 20.664062 25.101562 20.609375 24.980469 C 20.535156 24.78125 20.722656 24.578125 20.9375 24.636719 C 21.039062 24.664062 21.515625 24.6875 22.003906 24.6875 Z M 27.507812 24.6875 C 28.378906 24.6875 28.394531 24.6875 28.371094 24.878906 C 28.34375 25.066406 28.308594 25.074219 27.242188 25.101562 C 26.324219 25.117188 26.140625 25.101562 26.097656 24.988281 C 26.023438 24.800781 26.238281 24.585938 26.441406 24.636719 C 26.546875 24.664062 27.019531 24.6875 27.507812 24.6875 Z M 27.507812 24.6875 "/>
</g>
</svg>
