<?xml version="1.0" encoding="UTF-8"?>
<svg xmlns="http://www.w3.org/2000/svg" xmlns:xlink="http://www.w3.org/1999/xlink" width="128px" height="128px" viewBox="0 0 128 128" version="1.1">
<g id="surface1">
<path style=" stroke:none;fill-rule:nonzero;fill:rgb(0%,0%,0%);fill-opacity:1;" d="M 55.949219 0.6875 C 49.925781 1.445312 42.769531 3.507812 37.160156 6.054688 C 33.6875 7.671875 26.390625 12.078125 24.15625 13.933594 L 22.296875 15.484375 L 105.703125 15.484375 L 104.1875 14.246094 C 102.570312 12.867188 97.753906 9.601562 95.3125 8.1875 C 90.941406 5.675781 82.375 2.613281 76.179688 1.34375 C 72.328125 0.550781 60.144531 0.171875 55.949219 0.6875 Z M 55.949219 0.6875 "/>
<path style=" stroke:none;fill-rule:nonzero;fill:rgb(0%,0%,0%);fill-opacity:1;" d="M 17.34375 20.300781 C 13.144531 24.773438 10.632812 28.386719 7.464844 34.410156 C 5.125 38.882812 3.371094 43.527344 2.097656 48.792969 C 0.792969 54.054688 0.6875 54.710938 0.378906 59.769531 C -0.171875 67.886719 0.894531 76.285156 3.476562 84.058594 C 5.644531 90.667969 9.667969 98.511719 10.90625 98.613281 C 11.25 98.613281 12.351562 98.648438 13.351562 98.683594 C 15.003906 98.753906 15.140625 98.820312 15.140625 99.613281 C 15.140625 100.40625 15.035156 100.472656 13.386719 100.472656 L 11.664062 100.472656 L 12.800781 102.089844 C 18.03125 109.453125 27.148438 116.988281 35.957031 121.289062 C 43.285156 124.867188 49.890625 126.65625 58.804688 127.484375 C 63.726562 127.929688 64.929688 127.929688 69.574219 127.449219 C 72.464844 127.175781 76.25 126.625 77.933594 126.246094 C 90.699219 123.421875 102.777344 116.335938 111.414062 106.667969 C 115.164062 102.46875 116.128906 100.988281 115.992188 99.75 C 115.921875 98.890625 116.027344 98.753906 116.75 98.753906 C 117.472656 98.753906 117.917969 98.269531 119.328125 95.757812 C 123.25 88.910156 125.179688 83.820312 126.484375 76.9375 C 129.6875 60.042969 126.796875 44.007812 118.160156 30.3125 C 117.125 28.695312 116.09375 27.046875 115.855469 26.667969 C 115.027344 25.324219 111.863281 21.472656 110.3125 19.992188 L 108.765625 18.441406 L 63.929688 18.441406 L 19.097656 18.410156 Z M 93.246094 38.160156 C 93.730469 39.089844 93.695312 39.433594 93.039062 40.050781 C 92.558594 40.535156 89.53125 40.601562 64.652344 40.601562 L 36.816406 40.601562 L 36.4375 39.777344 C 36.164062 39.191406 36.164062 38.777344 36.4375 38.226562 L 36.851562 37.503906 L 64.859375 37.503906 C 92.214844 37.503906 92.902344 37.503906 93.246094 38.160156 Z M 98.785156 50.066406 C 98.753906 54.777344 98.613281 58.769531 98.546875 58.90625 C 98.441406 59.078125 98.132812 59.183594 97.859375 59.183594 C 97.445312 59.183594 97.375 57.875 97.375 50.785156 C 97.375 46.175781 97.480469 42.117188 97.582031 41.804688 C 97.71875 41.496094 98.066406 41.289062 98.339844 41.359375 C 98.820312 41.460938 98.890625 42.496094 98.785156 50.066406 Z M 32.621094 50.339844 L 32.6875 58.875 L 31.757812 58.769531 C 30.96875 58.699219 30.796875 58.496094 30.832031 57.703125 C 30.832031 57.1875 30.863281 53.367188 30.898438 49.167969 L 30.96875 41.601562 L 31.757812 41.703125 L 32.515625 41.804688 Z M 71.226562 60.179688 C 71.707031 61.109375 71.671875 61.453125 71.019531 62.074219 C 70.570312 62.519531 69.503906 62.625 64.894531 62.625 C 59.734375 62.625 59.25 62.554688 58.667969 61.933594 C 58.152344 61.351562 58.117188 61.109375 58.425781 60.386719 L 58.839844 59.527344 L 64.824219 59.527344 C 70.433594 59.527344 70.882812 59.5625 71.226562 60.179688 Z M 29.933594 63.621094 C 30.109375 64 31.175781 66.683594 32.273438 69.574219 C 33.410156 72.464844 34.613281 75.457031 35.027344 76.25 C 35.75 77.695312 35.613281 78.625 34.683594 78.28125 C 34.066406 78.039062 33.789062 77.417969 30.796875 69.710938 C 29.558594 66.511719 28.628906 63.65625 28.695312 63.414062 C 28.972656 62.761719 29.523438 62.863281 29.933594 63.621094 Z M 79.484375 63.898438 C 79.484375 64.207031 78.417969 67.234375 77.109375 70.675781 C 75.800781 74.082031 74.667969 77.316406 74.527344 77.832031 C 74.390625 78.484375 74.082031 78.796875 73.667969 78.796875 C 73.117188 78.796875 73.015625 78.589844 73.152344 77.625 C 73.359375 75.769531 77.933594 63.65625 78.589844 63.242188 C 79.070312 62.933594 79.484375 63.242188 79.484375 63.898438 Z M 53.847656 68.371094 C 54.917969 71.191406 56.257812 74.460938 56.808594 75.664062 C 57.359375 76.867188 57.804688 78.074219 57.804688 78.347656 C 57.804688 79.207031 56.671875 78.691406 56.015625 77.558594 C 55.089844 75.972656 50.582031 63.929688 50.785156 63.585938 C 51.371094 62.65625 52.058594 63.757812 53.847656 68.371094 Z M 101.503906 63.828125 C 101.503906 64.242188 97.71875 74.875 96.308594 78.382812 C 95.828125 79.550781 95.140625 79.105469 95.207031 77.695312 C 95.277344 76.695312 99.199219 65.824219 100.199219 63.898438 C 100.578125 63.175781 101.503906 63.105469 101.503906 63.828125 Z M 71.398438 81.890625 C 72.085938 82.441406 72.050781 83.234375 71.328125 84.027344 C 70.847656 84.578125 70.160156 84.644531 65.308594 84.644531 C 59.871094 84.644531 59.871094 84.644531 59.457031 83.820312 C 59.011719 82.785156 59.285156 81.960938 60.179688 81.617188 C 61.386719 81.203125 70.8125 81.410156 71.398438 81.890625 Z M 32.6875 94.3125 L 32.6875 103.261719 L 31.929688 103.15625 L 31.140625 103.054688 L 31.035156 94.625 C 31.003906 90.011719 31.035156 86.023438 31.140625 85.78125 C 31.207031 85.539062 31.621094 85.332031 32 85.332031 C 32.6875 85.332031 32.6875 85.503906 32.6875 94.3125 Z M 54.777344 93.832031 C 54.847656 98.546875 54.8125 102.570312 54.742188 102.777344 C 54.570312 103.398438 53.4375 103.328125 53.195312 102.675781 C 52.921875 101.953125 52.921875 85.847656 53.230469 85.574219 C 53.332031 85.4375 53.710938 85.332031 54.054688 85.332031 C 54.605469 85.332031 54.675781 85.988281 54.777344 93.832031 Z M 76.730469 94.28125 C 76.730469 102.640625 76.695312 102.882812 76.042969 102.882812 C 75.390625 102.882812 75.355469 102.640625 75.355469 94.28125 C 75.355469 85.917969 75.390625 85.675781 76.042969 85.675781 C 76.695312 85.675781 76.730469 85.917969 76.730469 94.28125 Z M 98.753906 94.3125 C 98.753906 102.332031 98.71875 102.917969 98.167969 102.8125 C 97.582031 102.710938 97.546875 101.988281 97.445312 94.175781 C 97.375 85.847656 97.375 85.675781 98.066406 85.675781 C 98.753906 85.675781 98.753906 85.882812 98.753906 94.3125 Z M 25.222656 99.0625 C 25.359375 99.199219 25.394531 99.578125 25.257812 99.921875 C 25.050781 100.4375 24.5 100.472656 20.679688 100.40625 C 16.515625 100.300781 16.34375 100.265625 16.242188 99.542969 C 16.171875 99.0625 16.34375 98.785156 16.722656 98.683594 C 17.753906 98.476562 24.945312 98.785156 25.222656 99.0625 Z M 47.585938 99.0625 C 47.828125 99.304688 47.792969 99.613281 47.484375 99.957031 C 47.105469 100.40625 46.3125 100.472656 42.699219 100.40625 C 38.777344 100.300781 38.367188 100.230469 38.261719 99.648438 C 38.195312 99.304688 38.296875 98.925781 38.46875 98.785156 C 39.019531 98.441406 47.242188 98.71875 47.585938 99.0625 Z M 88.015625 98.753906 C 91.492188 98.753906 91.5625 98.753906 91.457031 99.507812 C 91.355469 100.265625 91.21875 100.300781 87.019531 100.40625 C 83.234375 100.472656 82.648438 100.40625 82.441406 99.921875 C 82.132812 99.132812 82.890625 98.304688 83.75 98.546875 C 84.164062 98.648438 86.054688 98.753906 88.015625 98.753906 Z M 110.039062 98.753906 C 113.515625 98.753906 113.582031 98.753906 113.480469 99.507812 C 113.375 100.265625 113.238281 100.300781 108.972656 100.40625 C 105.289062 100.472656 104.566406 100.40625 104.394531 99.957031 C 104.085938 99.199219 104.945312 98.339844 105.773438 98.546875 C 106.183594 98.648438 108.078125 98.753906 110.039062 98.753906 Z M 110.039062 98.753906 "/>
</g>
</svg>
