<?xml version="1.0" encoding="UTF-8"?>
<svg xmlns="http://www.w3.org/2000/svg" xmlns:xlink="http://www.w3.org/1999/xlink" width="64px" height="64px" viewBox="0 0 64 64" version="1.1">
<g id="surface1">
<path style=" stroke:none;fill-rule:nonzero;fill:rgb(0%,0%,0%);fill-opacity:1;" d="M 27.972656 0.34375 C 24.964844 0.722656 21.386719 1.753906 18.582031 3.027344 C 16.84375 3.835938 13.195312 6.039062 12.078125 6.96875 L 11.148438 7.742188 L 52.851562 7.742188 L 52.09375 7.121094 C 51.285156 6.433594 48.878906 4.800781 47.65625 4.09375 C 45.472656 2.839844 41.1875 1.308594 38.089844 0.671875 C 36.164062 0.273438 30.074219 0.0859375 27.972656 0.34375 Z M 27.972656 0.34375 "/>
<path style=" stroke:none;fill-rule:nonzero;fill:rgb(0%,0%,0%);fill-opacity:1;" d="M 8.671875 10.152344 C 6.570312 12.386719 5.316406 14.195312 3.734375 17.203125 C 2.5625 19.441406 1.6875 21.761719 1.050781 24.394531 C 0.394531 27.027344 0.34375 27.355469 0.1875 29.882812 C -0.0859375 33.945312 0.449219 38.140625 1.738281 42.03125 C 2.820312 45.332031 4.835938 49.257812 5.453125 49.308594 C 5.625 49.308594 6.175781 49.324219 6.675781 49.34375 C 7.5 49.375 7.570312 49.410156 7.570312 49.804688 C 7.570312 50.203125 7.519531 50.238281 6.691406 50.238281 L 5.832031 50.238281 L 6.398438 51.046875 C 9.015625 54.726562 13.574219 58.496094 17.976562 60.644531 C 21.644531 62.433594 24.945312 63.328125 29.402344 63.742188 C 31.863281 63.964844 32.464844 63.964844 34.785156 63.726562 C 36.230469 63.585938 38.125 63.3125 38.96875 63.121094 C 45.351562 61.710938 51.390625 58.167969 55.707031 53.332031 C 57.582031 51.234375 58.066406 50.496094 57.996094 49.875 C 57.960938 49.445312 58.011719 49.375 58.375 49.375 C 58.734375 49.375 58.960938 49.136719 59.664062 47.878906 C 61.625 44.457031 62.589844 41.910156 63.242188 38.46875 C 64.84375 30.023438 63.398438 22.003906 59.078125 15.15625 C 58.5625 14.347656 58.046875 13.523438 57.925781 13.332031 C 57.515625 12.664062 55.929688 10.734375 55.15625 9.996094 L 54.382812 9.222656 L 31.964844 9.222656 L 9.546875 9.203125 Z M 46.625 19.078125 C 46.863281 19.542969 46.847656 19.714844 46.519531 20.027344 C 46.28125 20.265625 44.765625 20.300781 32.328125 20.300781 L 18.410156 20.300781 L 18.21875 19.886719 C 18.082031 19.59375 18.082031 19.390625 18.21875 19.113281 L 18.425781 18.753906 L 32.429688 18.753906 C 46.109375 18.753906 46.453125 18.753906 46.625 19.078125 Z M 49.394531 25.03125 C 49.375 27.390625 49.308594 29.386719 49.273438 29.453125 C 49.222656 29.539062 49.066406 29.589844 48.929688 29.589844 C 48.722656 29.589844 48.6875 28.9375 48.6875 25.394531 C 48.6875 23.089844 48.738281 21.058594 48.792969 20.902344 C 48.859375 20.75 49.03125 20.644531 49.167969 20.679688 C 49.410156 20.730469 49.445312 21.246094 49.394531 25.03125 Z M 16.308594 25.167969 L 16.34375 29.4375 L 15.878906 29.386719 C 15.484375 29.351562 15.398438 29.246094 15.414062 28.851562 C 15.414062 28.59375 15.433594 26.683594 15.449219 24.585938 L 15.484375 20.800781 L 15.878906 20.851562 L 16.257812 20.902344 Z M 35.613281 30.089844 C 35.855469 30.554688 35.835938 30.726562 35.507812 31.035156 C 35.285156 31.261719 34.753906 31.3125 32.449219 31.3125 C 29.867188 31.3125 29.625 31.277344 29.332031 30.96875 C 29.074219 30.675781 29.058594 30.554688 29.214844 30.195312 L 29.417969 29.761719 L 32.414062 29.761719 C 35.21875 29.761719 35.441406 29.78125 35.613281 30.089844 Z M 14.96875 31.8125 C 15.054688 32 15.585938 33.34375 16.136719 34.785156 C 16.707031 36.230469 17.308594 37.730469 17.515625 38.125 C 17.875 38.847656 17.804688 39.3125 17.34375 39.140625 C 17.03125 39.019531 16.894531 38.710938 15.398438 34.855469 C 14.777344 33.257812 14.3125 31.828125 14.347656 31.707031 C 14.484375 31.378906 14.761719 31.433594 14.96875 31.8125 Z M 39.742188 31.949219 C 39.742188 32.101562 39.207031 33.617188 38.554688 35.335938 C 37.902344 37.039062 37.332031 38.65625 37.265625 38.917969 C 37.195312 39.242188 37.039062 39.398438 36.835938 39.398438 C 36.558594 39.398438 36.507812 39.292969 36.578125 38.8125 C 36.679688 37.882812 38.96875 31.828125 39.292969 31.621094 C 39.535156 31.464844 39.742188 31.621094 39.742188 31.949219 Z M 26.925781 34.183594 C 27.457031 35.59375 28.128906 37.230469 28.40625 37.832031 C 28.679688 38.433594 28.902344 39.035156 28.902344 39.175781 C 28.902344 39.605469 28.335938 39.347656 28.007812 38.777344 C 27.542969 37.988281 25.289062 31.964844 25.394531 31.792969 C 25.6875 31.328125 26.03125 31.878906 26.925781 34.183594 Z M 50.753906 31.914062 C 50.753906 32.121094 48.859375 37.4375 48.15625 39.191406 C 47.914062 39.777344 47.570312 39.550781 47.605469 38.847656 C 47.640625 38.347656 49.601562 32.910156 50.097656 31.949219 C 50.289062 31.585938 50.753906 31.550781 50.753906 31.914062 Z M 35.699219 40.945312 C 36.042969 41.222656 36.027344 41.617188 35.664062 42.011719 C 35.421875 42.289062 35.078125 42.324219 32.652344 42.324219 C 29.933594 42.324219 29.933594 42.324219 29.730469 41.910156 C 29.503906 41.394531 29.644531 40.980469 30.089844 40.808594 C 30.691406 40.601562 35.40625 40.707031 35.699219 40.945312 Z M 16.34375 47.15625 L 16.34375 51.628906 L 15.964844 51.578125 L 15.570312 51.527344 L 15.519531 47.3125 C 15.5 45.007812 15.519531 43.011719 15.570312 42.890625 C 15.605469 42.769531 15.8125 42.667969 16 42.667969 C 16.34375 42.667969 16.34375 42.753906 16.34375 47.15625 Z M 27.390625 46.917969 C 27.421875 49.273438 27.40625 51.285156 27.371094 51.390625 C 27.285156 51.699219 26.71875 51.664062 26.597656 51.335938 C 26.460938 50.976562 26.460938 42.925781 26.613281 42.785156 C 26.667969 42.71875 26.855469 42.667969 27.027344 42.667969 C 27.304688 42.667969 27.335938 42.992188 27.390625 46.917969 Z M 38.367188 47.140625 C 38.367188 51.320312 38.347656 51.441406 38.023438 51.441406 C 37.695312 51.441406 37.675781 51.320312 37.675781 47.140625 C 37.675781 42.960938 37.695312 42.839844 38.023438 42.839844 C 38.347656 42.839844 38.367188 42.960938 38.367188 47.140625 Z M 49.375 47.15625 C 49.375 51.164062 49.359375 51.457031 49.082031 51.40625 C 48.792969 51.355469 48.773438 50.992188 48.722656 47.089844 C 48.6875 42.925781 48.6875 42.839844 49.03125 42.839844 C 49.375 42.839844 49.375 42.941406 49.375 47.15625 Z M 12.609375 49.53125 C 12.679688 49.601562 12.695312 49.789062 12.628906 49.960938 C 12.523438 50.21875 12.25 50.238281 10.339844 50.203125 C 8.257812 50.152344 8.171875 50.132812 8.121094 49.773438 C 8.085938 49.53125 8.171875 49.394531 8.359375 49.34375 C 8.878906 49.238281 12.472656 49.394531 12.609375 49.53125 Z M 23.792969 49.53125 C 23.914062 49.652344 23.898438 49.804688 23.742188 49.976562 C 23.550781 50.203125 23.15625 50.238281 21.351562 50.203125 C 19.390625 50.152344 19.183594 50.117188 19.132812 49.824219 C 19.097656 49.652344 19.148438 49.460938 19.234375 49.394531 C 19.507812 49.222656 23.621094 49.359375 23.792969 49.53125 Z M 44.007812 49.375 C 45.746094 49.375 45.78125 49.375 45.730469 49.753906 C 45.675781 50.132812 45.609375 50.152344 43.507812 50.203125 C 41.617188 50.238281 41.324219 50.203125 41.222656 49.960938 C 41.066406 49.566406 41.445312 49.152344 41.875 49.273438 C 42.082031 49.324219 43.027344 49.375 44.007812 49.375 Z M 55.019531 49.375 C 56.757812 49.375 56.792969 49.375 56.738281 49.753906 C 56.6875 50.132812 56.621094 50.152344 54.484375 50.203125 C 52.644531 50.238281 52.285156 50.203125 52.199219 49.976562 C 52.042969 49.601562 52.472656 49.167969 52.886719 49.273438 C 53.09375 49.324219 54.039062 49.375 55.019531 49.375 Z M 55.019531 49.375 "/>
</g>
</svg>
