<?xml version="1.0" encoding="UTF-8"?>
<svg xmlns="http://www.w3.org/2000/svg" xmlns:xlink="http://www.w3.org/1999/xlink" width="16px" height="16px" viewBox="0 0 16 16" version="1.1">
<g id="surface1">
<path style=" stroke:none;fill-rule:nonzero;fill:rgb(0%,0%,0%);fill-opacity:1;" d="M 6.992188 0.0859375 C 6.242188 0.179688 5.347656 0.4375 4.644531 0.757812 C 4.210938 0.960938 3.300781 1.507812 3.019531 1.742188 L 2.785156 1.933594 L 13.214844 1.933594 L 13.023438 1.78125 C 12.820312 1.609375 12.21875 1.199219 11.914062 1.023438 C 11.367188 0.710938 10.296875 0.328125 9.523438 0.167969 C 9.039062 0.0703125 7.519531 0.0234375 6.992188 0.0859375 Z M 6.992188 0.0859375 "/>
<path style=" stroke:none;fill-rule:nonzero;fill:rgb(0%,0%,0%);fill-opacity:1;" d="M 2.167969 2.539062 C 1.644531 3.097656 1.328125 3.546875 0.933594 4.300781 C 0.640625 4.859375 0.421875 5.441406 0.261719 6.097656 C 0.0976562 6.757812 0.0859375 6.839844 0.046875 7.472656 C -0.0234375 8.484375 0.113281 9.535156 0.433594 10.507812 C 0.707031 11.332031 1.207031 12.3125 1.363281 12.328125 C 1.40625 12.328125 1.542969 12.332031 1.667969 12.335938 C 1.875 12.34375 1.890625 12.351562 1.890625 12.453125 C 1.890625 12.550781 1.878906 12.558594 1.671875 12.558594 L 1.457031 12.558594 L 1.601562 12.761719 C 2.253906 13.683594 3.394531 14.625 4.496094 15.160156 C 5.410156 15.609375 6.238281 15.832031 7.351562 15.933594 C 7.964844 15.992188 8.117188 15.992188 8.695312 15.929688 C 9.058594 15.898438 9.53125 15.828125 9.742188 15.78125 C 11.335938 15.429688 12.847656 14.542969 13.925781 13.332031 C 14.394531 12.808594 14.515625 12.625 14.5 12.46875 C 14.492188 12.359375 14.503906 12.34375 14.59375 12.34375 C 14.683594 12.34375 14.738281 12.285156 14.917969 11.96875 C 15.40625 11.113281 15.648438 10.476562 15.8125 9.617188 C 16.210938 7.503906 15.847656 5.5 14.769531 3.789062 C 14.640625 3.585938 14.511719 3.378906 14.480469 3.332031 C 14.378906 3.164062 13.984375 2.683594 13.789062 2.5 L 13.59375 2.304688 L 7.992188 2.304688 L 2.386719 2.300781 Z M 11.65625 4.769531 C 11.714844 4.886719 11.710938 4.929688 11.628906 5.007812 C 11.570312 5.066406 11.191406 5.074219 8.082031 5.074219 L 4.601562 5.074219 L 4.554688 4.972656 C 4.519531 4.898438 4.519531 4.847656 4.554688 4.777344 L 4.605469 4.6875 L 8.109375 4.6875 C 11.527344 4.6875 11.613281 4.6875 11.65625 4.769531 Z M 12.347656 6.257812 C 12.34375 6.847656 12.328125 7.347656 12.316406 7.363281 C 12.304688 7.386719 12.265625 7.398438 12.230469 7.398438 C 12.179688 7.398438 12.171875 7.234375 12.171875 6.347656 C 12.171875 5.773438 12.183594 5.265625 12.199219 5.226562 C 12.214844 5.1875 12.257812 5.160156 12.292969 5.167969 C 12.351562 5.183594 12.359375 5.3125 12.347656 6.257812 Z M 4.078125 6.292969 L 4.085938 7.359375 L 3.96875 7.347656 C 3.871094 7.335938 3.847656 7.3125 3.855469 7.214844 C 3.855469 7.148438 3.859375 6.671875 3.863281 6.144531 L 3.871094 5.199219 L 3.96875 5.214844 L 4.066406 5.226562 Z M 8.902344 7.523438 C 8.964844 7.640625 8.960938 7.683594 8.878906 7.757812 C 8.820312 7.816406 8.6875 7.828125 8.113281 7.828125 C 7.464844 7.828125 7.40625 7.820312 7.332031 7.742188 C 7.269531 7.667969 7.265625 7.640625 7.304688 7.546875 L 7.355469 7.441406 L 8.101562 7.441406 C 8.804688 7.441406 8.859375 7.445312 8.902344 7.523438 Z M 3.742188 7.953125 C 3.761719 8 3.898438 8.335938 4.035156 8.695312 C 4.175781 9.058594 4.328125 9.433594 4.378906 9.53125 C 4.46875 9.710938 4.453125 9.828125 4.335938 9.785156 C 4.257812 9.753906 4.222656 9.675781 3.847656 8.714844 C 3.695312 8.3125 3.578125 7.957031 3.585938 7.925781 C 3.621094 7.84375 3.691406 7.859375 3.742188 7.953125 Z M 9.933594 7.988281 C 9.933594 8.027344 9.800781 8.40625 9.640625 8.835938 C 9.476562 9.261719 9.332031 9.664062 9.316406 9.730469 C 9.300781 9.8125 9.261719 9.847656 9.207031 9.847656 C 9.140625 9.847656 9.125 9.824219 9.144531 9.703125 C 9.167969 9.472656 9.742188 7.957031 9.824219 7.90625 C 9.882812 7.867188 9.933594 7.90625 9.933594 7.988281 Z M 6.730469 8.546875 C 6.863281 8.898438 7.03125 9.308594 7.101562 9.457031 C 7.167969 9.609375 7.226562 9.757812 7.226562 9.792969 C 7.226562 9.902344 7.082031 9.835938 7.003906 9.695312 C 6.886719 9.496094 6.324219 7.992188 6.347656 7.949219 C 6.421875 7.832031 6.507812 7.96875 6.730469 8.546875 Z M 12.6875 7.976562 C 12.6875 8.03125 12.214844 9.359375 12.039062 9.796875 C 11.976562 9.945312 11.890625 9.886719 11.902344 9.710938 C 11.910156 9.585938 12.398438 8.226562 12.523438 7.988281 C 12.570312 7.898438 12.6875 7.886719 12.6875 7.976562 Z M 8.925781 10.238281 C 9.011719 10.304688 9.007812 10.40625 8.917969 10.503906 C 8.855469 10.570312 8.769531 10.582031 8.164062 10.582031 C 7.484375 10.582031 7.484375 10.582031 7.433594 10.476562 C 7.375 10.347656 7.410156 10.246094 7.523438 10.203125 C 7.671875 10.152344 8.851562 10.175781 8.925781 10.238281 Z M 4.085938 11.789062 L 4.085938 12.90625 L 3.992188 12.894531 L 3.890625 12.882812 L 3.878906 11.828125 C 3.875 11.25 3.878906 10.753906 3.890625 10.722656 C 3.902344 10.691406 3.953125 10.667969 4 10.667969 C 4.085938 10.667969 4.085938 10.6875 4.085938 11.789062 Z M 6.847656 11.730469 C 6.855469 12.316406 6.851562 12.820312 6.84375 12.847656 C 6.820312 12.925781 6.679688 12.917969 6.648438 12.835938 C 6.613281 12.742188 6.613281 10.730469 6.652344 10.695312 C 6.667969 10.679688 6.714844 10.667969 6.757812 10.667969 C 6.824219 10.667969 6.835938 10.75 6.847656 11.730469 Z M 9.589844 11.785156 C 9.589844 12.832031 9.585938 12.859375 9.503906 12.859375 C 9.421875 12.859375 9.417969 12.832031 9.417969 11.785156 C 9.417969 10.738281 9.421875 10.710938 9.503906 10.710938 C 9.585938 10.710938 9.589844 10.738281 9.589844 11.785156 Z M 12.34375 11.789062 C 12.34375 12.792969 12.339844 12.863281 12.269531 12.851562 C 12.199219 12.839844 12.195312 12.75 12.179688 11.773438 C 12.171875 10.730469 12.171875 10.710938 12.257812 10.710938 C 12.34375 10.710938 12.34375 10.734375 12.34375 11.789062 Z M 3.152344 12.382812 C 3.167969 12.398438 3.175781 12.449219 3.15625 12.492188 C 3.132812 12.554688 3.0625 12.558594 2.585938 12.550781 C 2.066406 12.539062 2.042969 12.535156 2.03125 12.441406 C 2.023438 12.382812 2.042969 12.347656 2.089844 12.335938 C 2.21875 12.308594 3.117188 12.347656 3.152344 12.382812 Z M 5.949219 12.382812 C 5.976562 12.414062 5.972656 12.453125 5.933594 12.496094 C 5.886719 12.550781 5.789062 12.558594 5.335938 12.550781 C 4.847656 12.539062 4.796875 12.527344 4.78125 12.457031 C 4.773438 12.414062 4.785156 12.367188 4.808594 12.347656 C 4.878906 12.304688 5.90625 12.339844 5.949219 12.382812 Z M 11.003906 12.34375 C 11.4375 12.34375 11.445312 12.34375 11.433594 12.4375 C 11.417969 12.535156 11.402344 12.539062 10.878906 12.550781 C 10.40625 12.558594 10.332031 12.550781 10.304688 12.492188 C 10.265625 12.390625 10.359375 12.289062 10.46875 12.316406 C 10.519531 12.332031 10.757812 12.34375 11.003906 12.34375 Z M 13.753906 12.34375 C 14.1875 12.34375 14.199219 12.34375 14.183594 12.4375 C 14.171875 12.535156 14.15625 12.539062 13.621094 12.550781 C 13.160156 12.558594 13.070312 12.550781 13.050781 12.496094 C 13.011719 12.398438 13.117188 12.292969 13.222656 12.316406 C 13.273438 12.332031 13.507812 12.34375 13.753906 12.34375 Z M 13.753906 12.34375 "/>
</g>
</svg>
